<?xml version="1.0" standalone="no"?>
<!DOCTYPE svg PUBLIC "-//W3C//DTD SVG 20010904//EN"
 "http://www.w3.org/TR/2001/REC-SVG-20010904/DTD/svg10.dtd">
<svg version="1.0" xmlns="http://www.w3.org/2000/svg"
 width="1300.000000pt" height="1300.000000pt" viewBox="0 0 1300.000000 1300.000000"
 preserveAspectRatio="xMidYMid meet">

<g transform="translate(0.000000,1300.000000) scale(0.100000,-0.100000)"
fill="#000000" stroke="none">
<path d="M6535 11170 c-314 -14 -574 -50 -878 -121 -79 -19 -87 -23 -75 -37
12 -15 11 -16 -5 -3 -22 17 -43 13 -242 -50 -940 -299 -1748 -871 -2338 -1655
-429 -570 -728 -1260 -861 -1984 -51 -276 -82 -691 -71 -950 8 -199 31 -460
51 -575 9 -49 18 -103 21 -120 20 -138 89 -412 153 -610 459 -1421 1556 -2527
2975 -3000 164 -55 229 -73 445 -124 738 -173 1613 -147 2335 70 1182 356
2144 1112 2744 2159 125 217 145 263 145 333 0 153 -134 267 -284 242 -27 -5
-70 -27 -119 -61 -294 -206 -421 -283 -621 -378 -309 -146 -652 -248 -990
-293 -192 -26 -659 -26 -850 0 -1091 149 -2034 817 -2521 1789 -285 568 -401
1191 -338 1813 97 961 607 1832 1392 2378 387 270 829 455 1308 547 122 24
197 105 207 225 4 56 1 72 -22 119 -15 31 -44 69 -64 86 -43 36 -81 48 -292
95 -379 85 -806 122 -1205 105z m625 -260 c209 -20 340 -42 564 -92 93 -21
133 -34 120 -39 -10 -4 -82 -22 -159 -39 -336 -78 -644 -200 -965 -383 -95
-54 -263 -162 -293 -188 -7 -5 -39 -29 -72 -53 -92 -66 -227 -185 -359 -314
-389 -383 -687 -862 -860 -1382 -121 -365 -174 -667 -183 -1055 -10 -421 43
-779 174 -1179 77 -236 241 -598 317 -701 12 -16 25 -38 29 -47 3 -10 34 -59
68 -110 318 -475 720 -849 1204 -1122 427 -241 865 -384 1358 -441 881 -102
1787 143 2510 679 l78 58 -22 -44 c-230 -452 -599 -927 -979 -1262 -620 -545
-1327 -894 -2135 -1050 -483 -93 -1070 -99 -1549 -15 -1130 198 -2105 786
-2790 1684 -348 456 -601 972 -759 1545 -33 120 -98 440 -112 557 -3 21 -10
76 -16 123 -5 47 -13 207 -16 355 -6 291 4 484 38 720 21 144 88 475 113 555
8 25 33 106 57 180 114 370 319 793 549 1135 294 438 702 850 1146 1157 623
431 1369 703 2104 767 69 6 145 13 170 15 81 7 562 -3 670 -14z m-3670 -7454
c0 -2 -8 -10 -17 -17 -16 -13 -17 -12 -4 4 13 16 21 21 21 13z"/>
</g>
</svg>
